STARTFONT 2.1
FONT -URW-ITC Bookman-Demi-I-Normal--14-140-72-72-P-85-ISO8859-1
SIZE 14 72 72
FONTBOUNDINGBOX 26 17 -6 -3

STARTPROPERTIES 22
FONTNAME_REGISTRY "-"
FOUNDRY "URW"
FAMILY_NAME "ITC Bookman"
WEIGHT_NAME "Demi"
SLANT "I"
SETWIDTH_NAME "Normal"
ADD_STYLE_NAME ""
PIXEL_SIZE 14
POINT_SIZE 140
RESOLUTION_X 72
RESOLUTION_Y 72
SPACING "P"
CHARSET_REGISTRY "ISO8859"
CHARSET_ENCODING "1"
FULL_NAME "Bookman-DemiItalic"
AVERAGE_WIDTH 85
WEIGHT 10
X_HEIGHT 7
QUAD_WIDTH 10
DEFAULT_CHAR 32
FONT_DESCENT 3
FONT_ASCENT 14
ENDPROPERTIES

CHARS 190

STARTCHAR space
ENCODING 32
SWIDTH 340 0
DWIDTH 5 0
BBX 1 1 0 0
BITMAP
00
ENDCHAR

STARTCHAR exclam
ENCODING 33
SWIDTH 320 0
DWIDTH 4 0
BBX 4 10 1 0
BITMAP
30
70
70
60
60
60
40
00
C0
C0
ENDCHAR

STARTCHAR quotedbl
ENCODING 34
SWIDTH 380 0
DWIDTH 5 0
BBX 6 5 2 5
BITMAP
CC
CC
CC
88
88
ENDCHAR

STARTCHAR numbersign
ENCODING 35
SWIDTH 680 0
DWIDTH 8 0
BBX 7 10 2 0
BITMAP
34
24
24
2C
FE
28
FC
68
48
58
ENDCHAR

STARTCHAR dollar
ENCODING 36
SWIDTH 680 0
DWIDTH 10 0
BBX 9 14 1 -2
BITMAP
0400
0400
1F80
3000
7000
3000
1C00
0700
0380
0380
0300
FE00
1800
1000
ENDCHAR

STARTCHAR percent
ENCODING 37
SWIDTH 880 0
DWIDTH 12 0
BBX 11 10 1 0
BITMAP
7880
D900
D900
F200
0400
0400
09E0
1B60
1360
23C0
ENDCHAR

STARTCHAR ampersand
ENCODING 38
SWIDTH 980 0
DWIDTH 14 0
BBX 14 10 1 0
BITMAP
1E00
3B70
3330
3230
3E30
7F20
E740
C3CC
E388
7CF0
ENDCHAR

STARTCHAR quoteright
ENCODING 39
SWIDTH 320 0
DWIDTH 4 0
BBX 2 4 2 6
BITMAP
C0
C0
40
80
ENDCHAR

STARTCHAR parenleft
ENCODING 40
SWIDTH 260 0
DWIDTH 4 0
BBX 5 12 0 -2
BITMAP
18
30
20
60
C0
C0
C0
C0
C0
C0
60
30
ENDCHAR

STARTCHAR parenright
ENCODING 41
SWIDTH 260 0
DWIDTH 4 0
BBX 5 12 0 -2
BITMAP
30
18
18
18
18
18
18
18
30
20
60
C0
ENDCHAR

STARTCHAR asterisk
ENCODING 42
SWIDTH 460 0
DWIDTH 6 0
BBX 5 5 2 5
BITMAP
30
D8
68
F8
20
ENDCHAR

STARTCHAR plus
ENCODING 43
SWIDTH 600 0
DWIDTH 8 0
BBX 7 7 1 1
BITMAP
10
10
10
FE
10
10
10
ENDCHAR

STARTCHAR comma
ENCODING 44
SWIDTH 340 0
DWIDTH 5 0
BBX 3 5 1 -2
BITMAP
60
E0
E0
40
80
ENDCHAR

STARTCHAR minus
ENCODING 45
SWIDTH 600 0
DWIDTH 8 0
BBX 7 1 1 4
BITMAP
FE
ENDCHAR

STARTCHAR period
ENCODING 46
SWIDTH 340 0
DWIDTH 5 0
BBX 2 2 1 -1
BITMAP
C0
C0
ENDCHAR

STARTCHAR slash
ENCODING 47
SWIDTH 360 0
DWIDTH 5 0
BBX 7 12 0 -2
BITMAP
06
04
08
08
08
10
10
20
20
60
40
C0
ENDCHAR

STARTCHAR zero
ENCODING 48
SWIDTH 680 0
DWIDTH 10 0
BBX 9 10 1 0
BITMAP
1E00
3300
6180
E180
C180
C100
C300
C700
7E00
3C00
ENDCHAR

STARTCHAR one
ENCODING 49
SWIDTH 680 0
DWIDTH 10 0
BBX 6 10 2 0
BITMAP
7C
1C
1C
18
18
18
38
38
38
FC
ENDCHAR

STARTCHAR two
ENCODING 50
SWIDTH 680 0
DWIDTH 10 0
BBX 8 10 1 0
BITMAP
1E
63
63
63
07
06
08
10
61
FE
ENDCHAR

STARTCHAR three
ENCODING 51
SWIDTH 680 0
DWIDTH 10 0
BBX 9 10 1 0
BITMAP
1E00
6300
6380
0300
1E00
0700
0300
C300
C700
7C00
ENDCHAR

STARTCHAR four
ENCODING 52
SWIDTH 680 0
DWIDTH 10 0
BBX 9 10 1 0
BITMAP
0300
0700
0E00
1600
2600
6600
C600
FF80
0E00
1F00
ENDCHAR

STARTCHAR five
ENCODING 53
SWIDTH 680 0
DWIDTH 10 0
BBX 8 10 1 0
BITMAP
3F
20
20
7E
47
03
03
C3
C6
7C
ENDCHAR

STARTCHAR six
ENCODING 54
SWIDTH 680 0
DWIDTH 10 0
BBX 9 10 1 0
BITMAP
1F80
3000
6000
6000
FE00
C300
C300
C300
6700
3C00
ENDCHAR

STARTCHAR seven
ENCODING 55
SWIDTH 680 0
DWIDTH 10 0
BBX 9 10 2 0
BITMAP
7F80
C100
0200
0600
0C00
0C00
1800
3800
3800
3000
ENDCHAR

STARTCHAR eight
ENCODING 56
SWIDTH 680 0
DWIDTH 10 0
BBX 9 10 1 0
BITMAP
1E00
3100
6180
7B00
3E00
7F00
C700
C300
C300
7C00
ENDCHAR

STARTCHAR nine
ENCODING 57
SWIDTH 680 0
DWIDTH 10 0
BBX 9 10 1 0
BITMAP
1F00
3380
6180
6380
6380
3F80
0300
0300
0600
FC00
ENDCHAR

STARTCHAR colon
ENCODING 58
SWIDTH 340 0
DWIDTH 5 0
BBX 4 7 1 0
BITMAP
30
30
00
00
00
C0
C0
ENDCHAR

STARTCHAR semicolon
ENCODING 59
SWIDTH 340 0
DWIDTH 5 0
BBX 4 8 1 -2
BITMAP
30
30
00
00
E0
E0
40
80
ENDCHAR

STARTCHAR less
ENCODING 60
SWIDTH 620 0
DWIDTH 9 0
BBX 7 8 1 0
BITMAP
02
0E
38
E0
E0
38
0E
02
ENDCHAR

STARTCHAR equal
ENCODING 61
SWIDTH 600 0
DWIDTH 8 0
BBX 7 4 1 3
BITMAP
FE
00
00
FE
ENDCHAR

STARTCHAR greater
ENCODING 62
SWIDTH 620 0
DWIDTH 9 0
BBX 7 8 1 0
BITMAP
80
E0
38
0E
06
38
E0
80
ENDCHAR

STARTCHAR question
ENCODING 63
SWIDTH 620 0
DWIDTH 9 0
BBX 7 10 2 0
BITMAP
3C
C6
C6
C6
0E
18
10
00
00
30
ENDCHAR

STARTCHAR at
ENCODING 64
SWIDTH 780 0
DWIDTH 11 0
BBX 10 10 1 0
BITMAP
1E00
2180
4080
8F40
9240
B240
B280
5F40
2180
1E00
ENDCHAR

STARTCHAR A
ENCODING 65
SWIDTH 720 0
DWIDTH 10 0
BBX 11 10 0 0
BITMAP
0380
0780
0580
0980
0980
1F80
1180
2180
6180
F3E0
ENDCHAR

STARTCHAR B
ENCODING 66
SWIDTH 720 0
DWIDTH 10 0
BBX 10 10 0 0
BITMAP
3FC0
18C0
38C0
39C0
3F80
31C0
30C0
30C0
71C0
FF00
ENDCHAR

STARTCHAR C
ENCODING 67
SWIDTH 700 0
DWIDTH 10 0
BBX 9 10 1 0
BITMAP
1F80
3180
7080
E080
E000
E000
E000
E080
7100
3E00
ENDCHAR

STARTCHAR D
ENCODING 68
SWIDTH 760 0
DWIDTH 11 0
BBX 11 10 0 0
BITMAP
3F80
18C0
38E0
3860
3860
30E0
30E0
30C0
7180
FF00
ENDCHAR

STARTCHAR E
ENCODING 69
SWIDTH 720 0
DWIDTH 10 0
BBX 10 10 0 0
BITMAP
3FC0
18C0
3840
3940
3F00
3200
3240
3040
70C0
FFC0
ENDCHAR

STARTCHAR F
ENCODING 70
SWIDTH 660 0
DWIDTH 9 0
BBX 10 10 0 0
BITMAP
3FC0
18C0
3840
3800
3A00
3E00
3200
3000
7000
F800
ENDCHAR

STARTCHAR G
ENCODING 71
SWIDTH 760 0
DWIDTH 11 0
BBX 11 10 1 0
BITMAP
1E80
3180
70C0
E000
E000
E3E0
E180
E180
6380
3D80
ENDCHAR

STARTCHAR H
ENCODING 72
SWIDTH 800 0
DWIDTH 11 0
BBX 13 10 0 0
BITMAP
3FF8
1860
38E0
38E0
3FC0
30C0
30C0
30C0
71C0
FBE0
ENDCHAR

STARTCHAR I
ENCODING 73
SWIDTH 380 0
DWIDTH 5 0
BBX 7 10 0 0
BITMAP
3E
18
18
38
38
38
30
30
30
F8
ENDCHAR

STARTCHAR J
ENCODING 74
SWIDTH 620 0
DWIDTH 9 0
BBX 10 10 0 0
BITMAP
07C0
0380
0300
0300
0300
0700
E700
E600
CE00
7C00
ENDCHAR

STARTCHAR K
ENCODING 75
SWIDTH 780 0
DWIDTH 11 0
BBX 12 10 0 0
BITMAP
7FF0
30C0
3180
3700
3E00
3B00
3300
3180
71C0
FBE0
ENDCHAR

STARTCHAR L
ENCODING 76
SWIDTH 640 0
DWIDTH 9 0
BBX 10 10 0 0
BITMAP
3E00
1800
1800
3800
3800
3800
3040
30C0
7080
FF80
ENDCHAR

STARTCHAR M
ENCODING 77
SWIDTH 860 0
DWIDTH 12 0
BBX 13 10 0 0
BITMAP
3878
3870
3CF0
3DF0
2D70
2F60
2E60
2660
64E0
F5F0
ENDCHAR

STARTCHAR N
ENCODING 78
SWIDTH 740 0
DWIDTH 10 0
BBX 12 10 0 0
BITMAP
38F0
1C40
3440
3440
32C0
2280
2280
2180
6180
F180
ENDCHAR

STARTCHAR O
ENCODING 79
SWIDTH 760 0
DWIDTH 11 0
BBX 10 10 1 0
BITMAP
1F00
3180
71C0
E1C0
E1C0
E1C0
E1C0
E180
6300
3E00
ENDCHAR

STARTCHAR P
ENCODING 80
SWIDTH 640 0
DWIDTH 9 0
BBX 10 10 0 0
BITMAP
3F80
19C0
38C0
39C0
39C0
3F00
3000
3000
7000
F800
ENDCHAR

STARTCHAR Q
ENCODING 81
SWIDTH 760 0
DWIDTH 11 0
BBX 11 13 1 -3
BITMAP
0F80
39C0
30C0
70E0
60E0
60E0
60C0
6FC0
7B80
DFC0
C180
E180
3E00
ENDCHAR

STARTCHAR R
ENCODING 82
SWIDTH 740 0
DWIDTH 10 0
BBX 11 10 0 0
BITMAP
3FC0
18C0
38C0
39C0
3F80
3200
3300
3180
7080
F8E0
ENDCHAR

STARTCHAR S
ENCODING 83
SWIDTH 700 0
DWIDTH 10 0
BBX 9 10 1 0
BITMAP
1E80
7180
7080
7000
3E00
0780
8180
C180
E380
5E00
ENDCHAR

STARTCHAR T
ENCODING 84
SWIDTH 700 0
DWIDTH 10 0
BBX 10 10 1 0
BITMAP
FFC0
CCC0
8C40
0C00
0C00
1C00
1C00
1800
1800
7E00
ENDCHAR

STARTCHAR U
ENCODING 85
SWIDTH 740 0
DWIDTH 10 0
BBX 10 10 2 0
BITMAP
FBC0
7180
6180
6180
6100
6100
6100
6100
6300
7E00
ENDCHAR

STARTCHAR V
ENCODING 86
SWIDTH 660 0
DWIDTH 9 0
BBX 10 10 1 0
BITMAP
FBC0
7180
7100
3300
3200
3600
3C00
3C00
1800
1800
ENDCHAR

STARTCHAR W
ENCODING 87
SWIDTH 1000 0
DWIDTH 14 0
BBX 14 10 1 0
BITMAP
FFFC
6318
7390
7390
77A0
75A0
39C0
39C0
3980
3180
ENDCHAR

STARTCHAR X
ENCODING 88
SWIDTH 740 0
DWIDTH 10 0
BBX 12 10 0 0
BITMAP
3FF0
1CC0
1C80
0F00
0E00
0700
0B00
1380
7380
F7E0
ENDCHAR

STARTCHAR Y
ENCODING 89
SWIDTH 660 0
DWIDTH 9 0
BBX 10 10 1 0
BITMAP
FBC0
7180
3300
1200
1C00
1C00
1800
1800
1800
7C00
ENDCHAR

STARTCHAR Z
ENCODING 90
SWIDTH 680 0
DWIDTH 10 0
BBX 10 10 0 0
BITMAP
3FC0
7180
4300
0600
0C00
1C00
3800
30C0
6180
FF00
ENDCHAR

STARTCHAR bracketleft
ENCODING 91
SWIDTH 260 0
DWIDTH 4 0
BBX 5 12 0 -2
BITMAP
38
30
30
20
60
60
60
60
40
C0
C0
E0
ENDCHAR

STARTCHAR backslash
ENCODING 92
SWIDTH 580 0
DWIDTH 8 0
BBX 7 12 1 -2
BITMAP
C0
40
60
20
20
10
10
08
08
0C
04
06
ENDCHAR

STARTCHAR bracketright
ENCODING 93
SWIDTH 260 0
DWIDTH 4 0
BBX 5 12 0 -2
BITMAP
38
18
18
10
30
30
30
30
30
20
60
E0
ENDCHAR

STARTCHAR asciicircum
ENCODING 94
SWIDTH 620 0
DWIDTH 9 0
BBX 7 6 1 4
BITMAP
10
38
28
6C
44
C6
ENDCHAR

STARTCHAR underscore
ENCODING 95
SWIDTH 500 0
DWIDTH 7 0
BBX 7 1 0 -2
BITMAP
FE
ENDCHAR

STARTCHAR quoteleft
ENCODING 96
SWIDTH 320 0
DWIDTH 4 0
BBX 2 4 2 6
BITMAP
40
80
C0
C0
ENDCHAR

STARTCHAR a
ENCODING 97
SWIDTH 680 0
DWIDTH 10 0
BBX 9 7 1 0
BITMAP
3F00
7300
E300
E300
C200
E600
7F80
ENDCHAR

STARTCHAR b
ENCODING 98
SWIDTH 600 0
DWIDTH 8 0
BBX 8 10 1 0
BITMAP
F0
70
60
6E
73
63
63
67
E6
FC
ENDCHAR

STARTCHAR c
ENCODING 99
SWIDTH 560 0
DWIDTH 8 0
BBX 8 7 1 0
BITMAP
1E
77
E0
C0
C0
E2
7C
ENDCHAR

STARTCHAR d
ENCODING 100
SWIDTH 680 0
DWIDTH 10 0
BBX 9 10 1 0
BITMAP
0780
0300
0300
3F00
6300
E700
C700
C600
EE00
7780
ENDCHAR

STARTCHAR e
ENCODING 101
SWIDTH 560 0
DWIDTH 8 0
BBX 7 7 1 0
BITMAP
1E
76
E6
FC
C0
E2
7C
ENDCHAR

STARTCHAR f
ENCODING 102
SWIDTH 420 0
DWIDTH 6 0
BBX 12 14 -2 -3
BITMAP
00F0
0100
0300
0300
0F80
0700
0600
0600
0600
0600
0600
0C00
0800
F000
ENDCHAR

STARTCHAR g
ENCODING 103
SWIDTH 620 0
DWIDTH 9 0
BBX 9 10 0 -3
BITMAP
1F80
3180
7380
6300
6300
6700
3F00
0700
0600
FC00
ENDCHAR

STARTCHAR h
ENCODING 104
SWIDTH 700 0
DWIDTH 10 0
BBX 9 10 1 0
BITMAP
F000
7000
7000
7E00
6600
6600
6600
E600
C700
C780
ENDCHAR

STARTCHAR i
ENCODING 105
SWIDTH 380 0
DWIDTH 5 0
BBX 5 11 1 0
BITMAP
70
70
00
00
F0
60
60
60
60
F0
F8
ENDCHAR

STARTCHAR j
ENCODING 106
SWIDTH 320 0
DWIDTH 4 0
BBX 8 14 -1 -3
BITMAP
07
00
00
00
07
06
0E
0E
0C
0C
1C
1C
38
F0
ENDCHAR

STARTCHAR k
ENCODING 107
SWIDTH 700 0
DWIDTH 10 0
BBX 9 10 1 0
BITMAP
F000
7000
7000
6380
6400
6C00
7C00
EC00
EC00
C780
ENDCHAR

STARTCHAR l
ENCODING 108
SWIDTH 380 0
DWIDTH 5 0
BBX 4 10 2 0
BITMAP
F0
70
60
60
60
60
E0
C0
C0
E0
ENDCHAR

STARTCHAR m
ENCODING 109
SWIDTH 960 0
DWIDTH 13 0
BBX 13 7 1 0
BITMAP
FFE0
6670
6660
6660
6660
E660
CE78
ENDCHAR

STARTCHAR n
ENCODING 110
SWIDTH 680 0
DWIDTH 10 0
BBX 8 7 1 0
BITMAP
FE
66
67
67
66
E6
C7
ENDCHAR

STARTCHAR o
ENCODING 111
SWIDTH 600 0
DWIDTH 8 0
BBX 8 7 1 0
BITMAP
3E
67
E3
C3
C7
E6
7C
ENDCHAR

STARTCHAR p
ENCODING 112
SWIDTH 660 0
DWIDTH 9 0
BBX 10 10 0 -3
BITMAP
3B80
1DC0
38C0
39C0
3180
3180
3F00
3000
7000
F800
ENDCHAR

STARTCHAR q
ENCODING 113
SWIDTH 620 0
DWIDTH 9 0
BBX 8 10 1 -3
BITMAP
3F
63
E7
E7
C6
EE
76
06
0E
1F
ENDCHAR

STARTCHAR r
ENCODING 114
SWIDTH 500 0
DWIDTH 7 0
BBX 7 7 1 0
BITMAP
FE
60
60
60
60
60
E0
ENDCHAR

STARTCHAR s
ENCODING 115
SWIDTH 540 0
DWIDTH 8 0
BBX 8 7 0 0
BITMAP
3F
70
70
3C
0E
0E
FC
ENDCHAR

STARTCHAR t
ENCODING 116
SWIDTH 440 0
DWIDTH 6 0
BBX 5 9 1 0
BITMAP
30
20
F8
60
60
60
E0
C8
F0
ENDCHAR

STARTCHAR u
ENCODING 117
SWIDTH 680 0
DWIDTH 10 0
BBX 9 7 1 0
BITMAP
F300
6300
6700
6600
6600
FF80
7700
ENDCHAR

STARTCHAR v
ENCODING 118
SWIDTH 540 0
DWIDTH 8 0
BBX 7 7 1 0
BITMAP
F6
66
66
66
EC
EC
78
ENDCHAR

STARTCHAR w
ENCODING 119
SWIDTH 860 0
DWIDTH 12 0
BBX 12 7 1 0
BITMAP
F360
6370
6730
6620
6620
E640
7F80
ENDCHAR

STARTCHAR x
ENCODING 120
SWIDTH 620 0
DWIDTH 9 0
BBX 9 7 0 0
BITMAP
F980
1A00
1C00
1C00
1C00
2C00
C780
ENDCHAR

STARTCHAR y
ENCODING 121
SWIDTH 600 0
DWIDTH 8 0
BBX 9 10 0 -3
BITMAP
7380
3300
7300
7300
7300
6300
3E00
0600
0E00
F800
ENDCHAR

STARTCHAR z
ENCODING 122
SWIDTH 560 0
DWIDTH 8 0
BBX 8 7 1 0
BITMAP
7F
66
4C
18
30
60
FE
ENDCHAR

STARTCHAR braceleft
ENCODING 123
SWIDTH 300 0
DWIDTH 4 0
BBX 5 12 1 -2
BITMAP
38
30
20
20
60
E0
C0
60
40
C0
C0
E0
ENDCHAR

STARTCHAR bar
ENCODING 124
SWIDTH 620 0
DWIDTH 9 0
BBX 2 10 4 0
BITMAP
C0
C0
C0
C0
C0
C0
C0
C0
C0
C0
ENDCHAR

STARTCHAR braceright
ENCODING 125
SWIDTH 300 0
DWIDTH 4 0
BBX 5 12 0 -2
BITMAP
38
18
18
10
30
18
38
30
20
20
60
E0
ENDCHAR

STARTCHAR asciitilde
ENCODING 126
SWIDTH 620 0
DWIDTH 9 0
BBX 7 2 1 2
BITMAP
72
9C
ENDCHAR

STARTCHAR exclamdown
ENCODING 161
SWIDTH 320 0
DWIDTH 4 0
BBX 4 10 1 -3
BITMAP
30
60
00
60
60
60
E0
E0
E0
C0
ENDCHAR

STARTCHAR cent
ENCODING 162
SWIDTH 680 0
DWIDTH 10 0
BBX 6 8 2 2
BITMAP
18
18
7C
C0
C4
F8
20
20
ENDCHAR

STARTCHAR sterling
ENCODING 163
SWIDTH 680 0
DWIDTH 10 0
BBX 11 10 0 0
BITMAP
03C0
0660
0660
0C00
3F00
0C00
0C00
7980
9CC0
F380
ENDCHAR

STARTCHAR currency
ENCODING 164
SWIDTH 680 0
DWIDTH 10 0
BBX 6 6 1 1
BITMAP
B4
48
84
84
48
B4
ENDCHAR

STARTCHAR yen
ENCODING 165
SWIDTH 680 0
DWIDTH 10 0
BBX 10 10 1 0
BITMAP
FBC0
7100
3200
3200
FF00
1800
FF00
1800
3800
7C00
ENDCHAR

STARTCHAR brokenbar
ENCODING 166
SWIDTH 620 0
DWIDTH 9 0
BBX 2 10 4 0
BITMAP
C0
C0
C0
C0
00
00
C0
C0
C0
C0
ENDCHAR

STARTCHAR section
ENCODING 167
SWIDTH 620 0
DWIDTH 9 0
BBX 8 12 1 -2
BITMAP
1F
33
20
38
3E
63
63
3E
06
C2
C6
7C
ENDCHAR

STARTCHAR dieresis
ENCODING 168
SWIDTH 520 0
DWIDTH 7 0
BBX 5 1 3 9
BITMAP
D8
ENDCHAR

STARTCHAR copyright
ENCODING 169
SWIDTH 780 0
DWIDTH 11 0
BBX 10 10 1 0
BITMAP
1E00
6180
4080
8F40
9140
9040
9040
4F80
6180
1E00
ENDCHAR

STARTCHAR ordfeminine
ENCODING 170
SWIDTH 440 0
DWIDTH 6 0
BBX 6 6 1 4
BITMAP
38
68
48
58
6C
FC
ENDCHAR

STARTCHAR guillemotleft
ENCODING 171
SWIDTH 380 0
DWIDTH 5 0
BBX 5 6 1 1
BITMAP
50
50
A0
A0
50
28
ENDCHAR

STARTCHAR logicalnot
ENCODING 172
SWIDTH 620 0
DWIDTH 9 0
BBX 7 4 1 1
BITMAP
FE
02
02
02
ENDCHAR

STARTCHAR hyphen
ENCODING 173
SWIDTH 280 0
DWIDTH 4 0
BBX 4 1 1 3
BITMAP
F0
ENDCHAR

STARTCHAR registered
ENCODING 174
SWIDTH 780 0
DWIDTH 11 0
BBX 10 10 1 0
BITMAP
1E00
6180
4080
BE40
9240
9C40
9640
7B80
6180
1E00
ENDCHAR

STARTCHAR macron
ENCODING 175
SWIDTH 480 0
DWIDTH 7 0
BBX 5 1 2 9
BITMAP
F8
ENDCHAR

STARTCHAR degree
ENCODING 176
SWIDTH 400 0
DWIDTH 5 0
BBX 5 5 1 5
BITMAP
70
88
88
88
70
ENDCHAR

STARTCHAR plusminus
ENCODING 177
SWIDTH 600 0
DWIDTH 8 0
BBX 7 7 1 0
BITMAP
10
10
FE
10
10
00
FE
ENDCHAR

STARTCHAR twosuperior
ENCODING 178
SWIDTH 408 0
DWIDTH 6 0
BBX 5 6 -5 4
BITMAP
70
58
58
30
40
F0
ENDCHAR

STARTCHAR threesuperior
ENCODING 179
SWIDTH 408 0
DWIDTH 6 0
BBX 5 6 -5 4
BITMAP
70
58
10
38
98
F0
ENDCHAR

STARTCHAR acute
ENCODING 180
SWIDTH 340 0
DWIDTH 5 0
BBX 3 3 2 8
BITMAP
60
60
C0
ENDCHAR

STARTCHAR mu
ENCODING 181
SWIDTH 680 0
DWIDTH 10 0
BBX 9 10 1 -3
BITMAP
7380
6300
6300
6300
6300
7F80
7380
C000
C000
C000
ENDCHAR

STARTCHAR paragraph
ENCODING 182
SWIDTH 680 0
DWIDTH 10 0
BBX 9 13 1 -3
BITMAP
3F80
6580
C580
C580
C500
C500
ED00
7900
0B00
1B00
1A00
1A00
3F00
ENDCHAR

STARTCHAR periodcentered
ENCODING 183
SWIDTH 340 0
DWIDTH 7 0
BBX 2 2 3 4
BITMAP
C0
C0
ENDCHAR

STARTCHAR cedilla
ENCODING 184
SWIDTH 360 0
DWIDTH 5 0
BBX 3 3 1 -3
BITMAP
40
E0
E0
ENDCHAR

STARTCHAR onesuperior
ENCODING 185
SWIDTH 408 0
DWIDTH 6 0
BBX 4 6 -6 4
BITMAP
60
20
20
60
60
F0
ENDCHAR

STARTCHAR ordmasculine
ENCODING 186
SWIDTH 440 0
DWIDTH 6 0
BBX 6 6 1 4
BITMAP
3C
6C
78
38
10
FC
ENDCHAR

STARTCHAR guillemotright
ENCODING 187
SWIDTH 380 0
DWIDTH 5 0
BBX 5 6 1 1
BITMAP
50
50
28
28
50
A0
ENDCHAR

STARTCHAR onequarter
ENCODING 188
SWIDTH 1020 0
DWIDTH 13 0
BBX 12 10 -6 0
BITMAP
6080
2100
2100
2200
6630
F460
0860
08A0
11F0
2060
ENDCHAR

STARTCHAR onehalf
ENCODING 189
SWIDTH 1020 0
DWIDTH 13 0
BBX 12 10 -6 0
BITMAP
6080
2100
2100
2200
66E0
F490
0890
0860
1080
21F0
ENDCHAR

STARTCHAR threequarters
ENCODING 190
SWIDTH 1020 0
DWIDTH 13 0
BBX 13 10 -5 0
BITMAP
7040
5880
1080
3900
9B18
F230
0450
0450
08F8
1030
ENDCHAR

STARTCHAR questiondown
ENCODING 191
SWIDTH 620 0
DWIDTH 9 0
BBX 7 9 1 -3
BITMAP
18
00
18
30
70
E6
C6
E6
7C
ENDCHAR

STARTCHAR Agrave
ENCODING 192
SWIDTH 720 0
DWIDTH 10 0
BBX 11 14 0 0
BITMAP
0600
0700
0100
0000
0300
0780
0780
0980
0980
1F80
11C0
21C0
61C0
F3E0
ENDCHAR

STARTCHAR Aacute
ENCODING 193
SWIDTH 720 0
DWIDTH 10 0
BBX 11 14 0 0
BITMAP
0180
0380
0300
0180
0380
0780
0580
0980
0980
1F80
1180
2180
6180
F3E0
ENDCHAR

STARTCHAR Acircumflex
ENCODING 194
SWIDTH 720 0
DWIDTH 10 0
BBX 11 13 0 0
BITMAP
0380
0440
0000
0380
0780
0580
0980
0980
1F80
1180
2180
6180
F3E0
ENDCHAR

STARTCHAR Atilde
ENCODING 195
SWIDTH 720 0
DWIDTH 10 0
BBX 11 13 0 0
BITMAP
03C0
0500
0000
0380
0780
0580
0980
0980
1F80
1180
2180
6180
F3E0
ENDCHAR

STARTCHAR Adieresis
ENCODING 196
SWIDTH 720 0
DWIDTH 10 0
BBX 11 12 0 0
BITMAP
0D80
0000
0380
0780
0580
0980
0980
1F80
1180
2180
6180
F3E0
ENDCHAR

STARTCHAR Aring
ENCODING 197
SWIDTH 720 0
DWIDTH 10 0
BBX 11 14 0 0
BITMAP
0380
0280
0380
0000
0380
0780
0580
0980
0980
1F80
1180
2180
6180
F3E0
ENDCHAR

STARTCHAR AE
ENCODING 198
SWIDTH 1140 0
DWIDTH 16 0
BBX 17 10 0 0
BITMAP
007F80
007180
00E080
016400
027C00
046C00
0FE400
18E080
30E180
F9FF80
ENDCHAR

STARTCHAR Ccedilla
ENCODING 199
SWIDTH 700 0
DWIDTH 10 0
BBX 9 13 1 -3
BITMAP
1F80
3180
7080
E080
E000
E000
E000
E080
7100
3E00
1000
3800
3800
ENDCHAR

STARTCHAR Egrave
ENCODING 200
SWIDTH 720 0
DWIDTH 10 0
BBX 10 14 0 0
BITMAP
0600
0300
0100
0000
3FC0
18C0
3840
3940
3F00
3100
3040
3040
70C0
FFC0
ENDCHAR

STARTCHAR Eacute
ENCODING 201
SWIDTH 720 0
DWIDTH 10 0
BBX 10 14 0 0
BITMAP
0300
0700
0600
0000
3FC0
18C0
3840
3900
3F00
3100
3040
3040
70C0
FFC0
ENDCHAR

STARTCHAR Ecircumflex
ENCODING 202
SWIDTH 720 0
DWIDTH 10 0
BBX 10 13 0 0
BITMAP
0700
0880
0000
3FC0
18C0
3840
3940
3F00
3100
3040
3040
70C0
FFC0
ENDCHAR

STARTCHAR Edieresis
ENCODING 203
SWIDTH 720 0
DWIDTH 10 0
BBX 10 12 0 0
BITMAP
0D80
0000
3FC0
18C0
3840
3900
3F00
3100
3040
3040
70C0
FFC0
ENDCHAR

STARTCHAR Igrave
ENCODING 204
SWIDTH 380 0
DWIDTH 5 0
BBX 7 14 0 0
BITMAP
18
1C
0C
00
3E
18
18
38
38
38
30
30
30
F8
ENDCHAR

STARTCHAR Iacute
ENCODING 205
SWIDTH 380 0
DWIDTH 5 0
BBX 7 14 0 0
BITMAP
0C
1C
18
00
3E
18
18
38
38
38
30
30
30
F8
ENDCHAR

STARTCHAR Icircumflex
ENCODING 206
SWIDTH 380 0
DWIDTH 5 0
BBX 7 13 0 0
BITMAP
1C
22
00
3E
18
18
38
38
38
30
30
30
F8
ENDCHAR

STARTCHAR Idieresis
ENCODING 207
SWIDTH 380 0
DWIDTH 5 0
BBX 7 12 0 0
BITMAP
66
00
3E
18
18
38
38
38
30
30
30
F8
ENDCHAR

STARTCHAR Eth
ENCODING 208
SWIDTH 760 0
DWIDTH 11 0
BBX 11 10 0 0
BITMAP
3F80
18C0
38E0
3860
7E60
30E0
30E0
30C0
7180
FF00
ENDCHAR

STARTCHAR Ntilde
ENCODING 209
SWIDTH 740 0
DWIDTH 10 0
BBX 12 13 0 0
BITMAP
0680
0900
0000
38F0
1C40
1440
3640
36C0
32C0
2280
2180
6180
F180
ENDCHAR

STARTCHAR Ograve
ENCODING 210
SWIDTH 760 0
DWIDTH 11 0
BBX 10 14 1 0
BITMAP
0C00
0E00
0600
0000
1F00
3180
71C0
E1C0
E1C0
E1C0
E1C0
E380
6300
3E00
ENDCHAR

STARTCHAR Oacute
ENCODING 211
SWIDTH 760 0
DWIDTH 11 0
BBX 10 14 1 0
BITMAP
0600
0E00
0C00
0000
1F00
3180
71C0
E1C0
E1C0
E1C0
E1C0
E380
6300
3E00
ENDCHAR

STARTCHAR Ocircumflex
ENCODING 212
SWIDTH 760 0
DWIDTH 11 0
BBX 10 13 1 0
BITMAP
0E00
1100
0000
1F00
3180
71C0
E1C0
E1C0
E1C0
E1C0
E380
6300
3E00
ENDCHAR

STARTCHAR Otilde
ENCODING 213
SWIDTH 760 0
DWIDTH 11 0
BBX 10 13 1 0
BITMAP
0D00
1600
0000
1F00
3180
71C0
E1C0
E1C0
E1C0
E1C0
E380
6300
3E00
ENDCHAR

STARTCHAR Odieresis
ENCODING 214
SWIDTH 760 0
DWIDTH 11 0
BBX 10 12 1 0
BITMAP
1B00
0000
1F00
3180
71C0
E1C0
E1C0
E1C0
E1C0
E380
6300
3E00
ENDCHAR

STARTCHAR multiply
ENCODING 215
SWIDTH 600 0
DWIDTH 8 0
BBX 6 6 2 2
BITMAP
C4
4C
30
30
C8
8C
ENDCHAR

STARTCHAR Oslash
ENCODING 216
SWIDTH 760 0
DWIDTH 11 0
BBX 12 10 2 0
BITMAP
0FF0
18E0
38E0
71E0
72E0
74E0
78E0
71C0
7180
DF00
ENDCHAR

STARTCHAR Ugrave
ENCODING 217
SWIDTH 740 0
DWIDTH 10 0
BBX 10 14 2 0
BITMAP
0C00
0E00
0600
0000
FBC0
6180
6180
6180
6180
6180
6180
6180
6300
7E00
ENDCHAR

STARTCHAR Uacute
ENCODING 218
SWIDTH 740 0
DWIDTH 10 0
BBX 10 14 2 0
BITMAP
0600
0E00
0C00
0000
FBC0
7180
6180
6180
6100
6100
6100
6100
6300
7E00
ENDCHAR

STARTCHAR Ucircumflex
ENCODING 219
SWIDTH 740 0
DWIDTH 10 0
BBX 10 13 2 0
BITMAP
0E00
1100
0000
FBC0
7180
7180
6180
6180
6180
6180
6180
6300
7E00
ENDCHAR

STARTCHAR Udieresis
ENCODING 220
SWIDTH 740 0
DWIDTH 10 0
BBX 10 12 2 0
BITMAP
3600
0000
FBC0
6180
6180
6180
6180
6180
6180
6180
6180
7F00
ENDCHAR

STARTCHAR Yacute
ENCODING 221
SWIDTH 660 0
DWIDTH 9 0
BBX 10 14 1 0
BITMAP
0600
0600
0C00
0000
FBC0
7180
3300
1200
1C00
1C00
1800
1800
1800
7C00
ENDCHAR

STARTCHAR Thorn
ENCODING 222
SWIDTH 640 0
DWIDTH 9 0
BBX 10 10 0 0
BITMAP
7E00
1800
3F80
31C0
31C0
31C0
3180
3F00
3000
F800
ENDCHAR

STARTCHAR germandbls
ENCODING 223
SWIDTH 660 0
DWIDTH 9 0
BBX 13 14 -2 -3
BITMAP
00F0
0110
0118
0130
07E0
0270
0238
0218
0638
0430
05E0
0400
0800
F000
ENDCHAR

STARTCHAR agrave
ENCODING 224
SWIDTH 680 0
DWIDTH 10 0
BBX 9 11 1 0
BITMAP
0C00
0E00
0200
0000
3F00
7300
E300
E300
C200
E600
7F80
ENDCHAR

STARTCHAR aacute
ENCODING 225
SWIDTH 680 0
DWIDTH 10 0
BBX 9 11 1 0
BITMAP
0600
0600
0C00
0000
3F00
7300
E300
E300
C200
E600
7F80
ENDCHAR

STARTCHAR acircumflex
ENCODING 226
SWIDTH 680 0
DWIDTH 10 0
BBX 9 10 1 0
BITMAP
0E00
1100
0000
3F00
7300
E300
E300
C200
E600
7F80
ENDCHAR

STARTCHAR atilde
ENCODING 227
SWIDTH 680 0
DWIDTH 10 0
BBX 9 10 1 0
BITMAP
0F00
1600
0000
3F00
7300
E300
E300
C200
E600
7F80
ENDCHAR

STARTCHAR adieresis
ENCODING 228
SWIDTH 680 0
DWIDTH 10 0
BBX 9 9 1 0
BITMAP
3600
0000
3F00
7300
E300
E300
C200
E600
7F80
ENDCHAR

STARTCHAR aring
ENCODING 229
SWIDTH 680 0
DWIDTH 10 0
BBX 9 11 1 0
BITMAP
0E00
0A00
0E00
0000
3F00
7300
E300
E300
C200
E600
7F80
ENDCHAR

STARTCHAR ae
ENCODING 230
SWIDTH 880 0
DWIDTH 12 0
BBX 12 7 1 0
BITMAP
3DF0
6710
6630
5FE0
E600
CE10
FBE0
ENDCHAR

STARTCHAR ccedilla
ENCODING 231
SWIDTH 560 0
DWIDTH 8 0
BBX 8 10 1 -3
BITMAP
1E
77
E0
C0
C0
E2
7C
10
38
38
ENDCHAR

STARTCHAR egrave
ENCODING 232
SWIDTH 560 0
DWIDTH 8 0
BBX 7 11 1 0
BITMAP
18
1C
04
00
1E
76
E6
FC
C0
E2
7C
ENDCHAR

STARTCHAR eacute
ENCODING 233
SWIDTH 560 0
DWIDTH 8 0
BBX 7 11 1 0
BITMAP
0C
0C
18
00
1E
76
E6
FC
C0
E2
7C
ENDCHAR

STARTCHAR ecircumflex
ENCODING 234
SWIDTH 560 0
DWIDTH 8 0
BBX 7 10 1 0
BITMAP
1C
32
00
1E
76
E6
FC
C0
E2
7C
ENDCHAR

STARTCHAR edieresis
ENCODING 235
SWIDTH 560 0
DWIDTH 8 0
BBX 7 9 1 0
BITMAP
36
00
1E
76
E6
FC
C0
E2
7C
ENDCHAR

STARTCHAR igrave
ENCODING 236
SWIDTH 380 0
DWIDTH 5 0
BBX 5 11 1 0
BITMAP
30
38
08
00
F0
60
60
60
60
F0
F8
ENDCHAR

STARTCHAR iacute
ENCODING 237
SWIDTH 380 0
DWIDTH 5 0
BBX 5 11 1 0
BITMAP
18
18
30
00
F0
60
60
60
60
F0
F8
ENDCHAR

STARTCHAR icircumflex
ENCODING 238
SWIDTH 380 0
DWIDTH 5 0
BBX 6 10 1 0
BITMAP
78
CC
00
F0
60
60
60
60
F0
F8
ENDCHAR

STARTCHAR idieresis
ENCODING 239
SWIDTH 380 0
DWIDTH 5 0
BBX 5 9 1 0
BITMAP
D8
00
F0
60
60
60
60
F0
F8
ENDCHAR

STARTCHAR eth
ENCODING 240
SWIDTH 600 0
DWIDTH 8 0
BBX 8 11 1 0
BITMAP
0C
18
1E
23
3F
67
E3
E3
C7
E6
7C
ENDCHAR

STARTCHAR ntilde
ENCODING 241
SWIDTH 680 0
DWIDTH 10 0
BBX 9 10 1 0
BITMAP
1E00
2C00
0000
FE00
6700
6700
6600
6600
E780
C700
ENDCHAR

STARTCHAR ograve
ENCODING 242
SWIDTH 600 0
DWIDTH 8 0
BBX 8 11 1 0
BITMAP
18
1C
04
00
3E
67
E3
C3
C7
E6
7C
ENDCHAR

STARTCHAR oacute
ENCODING 243
SWIDTH 600 0
DWIDTH 8 0
BBX 8 11 1 0
BITMAP
0C
0C
18
00
3E
67
E3
C3
C7
E6
7C
ENDCHAR

STARTCHAR ocircumflex
ENCODING 244
SWIDTH 600 0
DWIDTH 8 0
BBX 8 10 1 0
BITMAP
0E
11
00
3E
67
E3
C3
C7
E6
7C
ENDCHAR

STARTCHAR otilde
ENCODING 245
SWIDTH 600 0
DWIDTH 8 0
BBX 8 10 1 0
BITMAP
0F
16
00
3E
67
E3
C3
C7
E6
7C
ENDCHAR

STARTCHAR odieresis
ENCODING 246
SWIDTH 600 0
DWIDTH 8 0
BBX 8 9 1 0
BITMAP
36
00
3E
67
E3
C3
C7
E6
7C
ENDCHAR

STARTCHAR divide
ENCODING 247
SWIDTH 600 0
DWIDTH 8 0
BBX 5 7 2 1
BITMAP
20
00
00
F8
00
00
20
ENDCHAR

STARTCHAR oslash
ENCODING 248
SWIDTH 600 0
DWIDTH 8 0
BBX 9 8 1 0
BITMAP
0180
3F00
6700
EF00
DB00
F700
E600
FC00
ENDCHAR

STARTCHAR ugrave
ENCODING 249
SWIDTH 680 0
DWIDTH 10 0
BBX 9 11 1 0
BITMAP
0C00
0E00
0200
0000
F300
6300
6700
6600
6600
FF80
7700
ENDCHAR

STARTCHAR uacute
ENCODING 250
SWIDTH 680 0
DWIDTH 10 0
BBX 9 11 1 0
BITMAP
0600
0600
0C00
0000
F300
6300
6700
6600
6600
FF80
7700
ENDCHAR

STARTCHAR ucircumflex
ENCODING 251
SWIDTH 680 0
DWIDTH 10 0
BBX 9 10 1 0
BITMAP
0C00
1B00
0000
F300
6300
6700
6600
6600
FF80
7700
ENDCHAR

STARTCHAR udieresis
ENCODING 252
SWIDTH 680 0
DWIDTH 10 0
BBX 9 9 1 0
BITMAP
3600
0000
F300
6300
6700
6600
6600
FF80
7700
ENDCHAR

STARTCHAR yacute
ENCODING 253
SWIDTH 600 0
DWIDTH 8 0
BBX 9 14 0 -3
BITMAP
0600
0600
0C00
0000
7380
3300
7300
7300
7300
6300
3E00
0600
0E00
F800
ENDCHAR

STARTCHAR thorn
ENCODING 254
SWIDTH 660 0
DWIDTH 9 0
BBX 10 13 0 -3
BITMAP
3C00
1C00
1800
1B80
1DC0
18C0
39C0
3180
3180
3F00
3000
7000
F800
ENDCHAR

STARTCHAR ydieresis
ENCODING 255
SWIDTH 600 0
DWIDTH 8 0
BBX 9 12 0 -3
BITMAP
1B00
0000
7380
3300
7300
7300
7300
6300
3E00
0600
0E00
F800
ENDCHAR
ENDFONT
